<?xml version="1.0" encoding="UTF-8"?>
<svg id="Capa_1" data-name="Capa 1" xmlns="http://www.w3.org/2000/svg" viewBox="0 0 185.17 196.41">
  <defs>
    <style>
      .cls-1 {
        fill: none;
        stroke: #f2dc40;
        stroke-miterlimit: 10;
        stroke-width: 3.36px;
      }
    </style>
  </defs>
  <path class="cls-1" d="M71.18,194.73c-46.33,0-69.5-16.04-69.5-48.13,0-8.41,2.87-16.6,8.62-24.58,5.75-7.98,15.49-16.6,29.22-25.87,1.03-.68,1.03-1.55,0-2.58-10.3-9.78-17.34-18.1-21.11-24.97-3.78-6.86-5.66-14.32-5.66-22.39,0-13.04,5.62-23.72,16.86-32.05C40.84,5.84,56.16,1.68,75.55,1.68c20.76,0,36.46,3.95,47.1,11.84,10.64,7.89,15.96,18.96,15.96,33.2,0,9.1-3.09,17.76-9.27,26s-16.47,16.9-30.89,26c-1.2.69-1.29,1.55-.26,2.58l23.42,22.65c.68.35,1.2.09,1.55-.77v-16.99c0-3.94,1.42-7.38,4.25-10.3,2.83-2.92,6.22-4.38,10.17-4.38h10.55c3.94,0,7.38,1.46,10.3,4.38,2.92,2.92,4.38,6.35,4.38,10.3v55.34c0,1.55.52,2.83,1.55,3.86l17.24,16.73c1.89,1.89,2.36,4.03,1.42,6.44-.95,2.4-2.79,3.6-5.53,3.6h-17.76c-9.78,0-18.28-3.35-25.48-10.04-.86-.86-2.06-1.03-3.6-.52-20.94,8.75-40.76,13.13-59.46,13.13ZM63.97,119.57c-11.84,8.58-17.76,16.31-17.76,23.17,0,12.53,9.01,18.79,27.03,18.79,10.3,0,19.99-2.14,29.09-6.43,1.2-.68,1.29-1.55.26-2.58l-35.26-32.95c-1.03-1.03-2.15-1.03-3.35,0ZM91.77,36.68c-3.6-3.09-8.75-4.63-15.44-4.63s-11.97,1.5-15.83,4.51c-3.86,3-5.79,6.82-5.79,11.45,0,3.95.94,7.64,2.83,11.07,1.89,3.44,6.35,8.67,13.39,15.7,1.03,1.03,2.14,1.12,3.35.26,9.43-5.83,15.61-10.46,18.53-13.9,2.92-3.43,4.38-7.21,4.38-11.33,0-5.66-1.8-10.04-5.41-13.13Z"/>
</svg>