<?xml version="1.0" encoding="UTF-8"?>
<svg id="Capa_1" data-name="Capa 1" xmlns="http://www.w3.org/2000/svg" viewBox="0 0 1085.19 1079.85">
  <defs>
    <style>
      .cls-1 {
        fill: #c7e2ef;
      }
    </style>
  </defs>
  <g id="Capa_1-2" data-name="Capa 1-2">
    <path class="cls-1" d="M578.68,31.78l27.26,215.58,112.67-185.77c22.19-36.49,78.18-11.49,65.89,29.27l-62.68,207.96,178.42-123.89c35.02-24.32,76.05,21.25,48.25,53.59l-141.94,164.52,213.44-40.63c41.97-8.02,60.81,50.39,22.32,68.56l-196.6,92.62,211.43,49.72c41.56,9.76,35.15,70.7-7.48,71.64l-217.18,4.68,172.94,131.38c33.95,25.79,3.34,78.99-36.09,62.41l-200.34-84.07,104.51,190.45c20.58,37.42-29.14,73.51-58.27,42.37l-148.75-158.24,18.04,216.51c3.61,42.5-56.4,55.33-70.43,14.97l-71.5-205.15-71.5,205.15c-14.03,40.23-74.04,27.53-70.43-14.97l18.04-216.51-148.75,158.24c-29.27,31.14-78.85-4.95-58.27-42.37l104.51-190.45-200.34,84.07c-39.29,16.57-70.03-36.62-36.09-62.41l172.94-131.38-217.18-4.68c-42.63-.94-49.05-61.88-7.48-71.64l211.43-49.72-196.6-92.62c-38.62-18.18-19.65-76.45,22.32-68.56l213.44,40.63-141.94-164.52c-27.93-32.34,13.23-77.92,48.25-53.59l178.42,123.89-62.68-207.96c-12.3-40.9,43.7-65.76,65.89-29.27l112.67,185.77,27.26-215.58c5.35-42.37,66.69-42.37,72.04,0h.13Z"/>
  </g>
</svg>