<?xml version="1.0" encoding="UTF-8"?>
<svg id="Capa_1" data-name="Capa 1" xmlns="http://www.w3.org/2000/svg" viewBox="0 0 1085.19 1079.85">
  <defs>
    <style>
      .cls-1 {
        fill: #e9f5fc;
      }
    </style>
  </defs>
  <g id="Capa_1-2" data-name="Capa 1-2">
    <path class="cls-1" d="M577.91,42.62l26.68,210.98,110.26-181.81c21.71-35.71,76.52-11.25,64.48,28.64l-61.34,203.52,174.62-121.25c34.27-23.81,74.42,20.8,47.22,52.45l-138.91,161.01,208.88-39.76c41.07-7.85,59.51,49.31,21.84,67.1l-192.4,90.64,206.92,48.66c40.68,9.55,34.4,69.19-7.32,70.11l-212.55,4.58,169.25,128.57c33.22,25.24,3.27,77.3-35.32,61.08l-196.07-82.27,102.28,186.39c20.14,36.62-28.51,71.94-57.03,41.46l-145.58-154.87,17.66,211.89c3.53,41.59-55.2,54.15-68.93,14.65l-69.98-200.78-69.98,200.78c-13.73,39.37-72.46,26.94-68.93-14.65l17.66-211.89-145.58,154.87c-28.64,30.48-77.17-4.84-57.03-41.46l102.28-186.39-196.07,82.27c-38.45,16.22-68.54-35.84-35.32-61.08l169.25-128.57-212.55-4.58c-41.72-.92-48-60.56-7.32-70.11l206.92-48.66-192.4-90.64c-37.8-17.79-19.23-74.82,21.84-67.1l208.88,39.76-138.91-161.01c-27.34-31.65,12.95-76.26,47.22-52.45l174.62,121.25-61.34-203.52c-12.03-40.02,42.77-64.35,64.48-28.64l110.26,181.81,26.68-210.98c5.23-41.46,65.27-41.46,70.5,0h.13Z"/>
  </g>
</svg>