<?xml version="1.0" encoding="UTF-8"?><svg id="Capa_2" xmlns="http://www.w3.org/2000/svg" viewBox="0 0 81.19 80.78"><defs><style>.cls-1{fill:#fe0;}</style></defs><g id="Capa_1-2"><path class="cls-1" d="M43.29,2.38l2.04,16.13,8.43-13.9c1.66-2.73,5.85-.86,4.93,2.19l-4.69,15.56,13.35-9.27c2.62-1.82,5.69,1.59,3.61,4.01l-10.62,12.31,15.97-3.04c3.14-.6,4.55,3.77,1.67,5.13l-14.71,6.93,15.82,3.72c3.11.73,2.63,5.29-.56,5.36l-16.25.35,12.94,9.83c2.54,1.93.25,5.91-2.7,4.67l-14.99-6.29,7.82,14.25c1.54,2.8-2.18,5.5-4.36,3.17l-11.13-11.84,1.35,16.2c.27,3.18-4.22,4.14-5.27,1.12l-5.35-15.35-5.35,15.35c-1.05,3.01-5.54,2.06-5.27-1.12l1.35-16.2-11.13,11.84c-2.19,2.33-5.9-.37-4.36-3.17l7.82-14.25-14.99,6.29c-2.94,1.24-5.24-2.74-2.7-4.67l12.94-9.83-16.25-.35c-3.19-.07-3.67-4.63-.56-5.36l15.82-3.72-14.71-6.93c-2.89-1.36-1.47-5.72,1.67-5.13l15.97,3.04-10.62-12.31c-2.09-2.42.99-5.83,3.61-4.01l13.35,9.27-4.69-15.56c-.92-3.06,3.27-4.92,4.93-2.19l8.43,13.9,2.04-16.13c.4-3.17,4.99-3.17,5.39,0Z"/></g></svg>