<?xml version="1.0" encoding="UTF-8"?>
<svg id="Capa_1" data-name="Capa 1" xmlns="http://www.w3.org/2000/svg" viewBox="0 0 1085.19 1079.85">
  <defs>
    <style>
      .cls-1 {
        fill: #20a5dd;
      }
    </style>
  </defs>
  <g id="Capa_1-2" data-name="Capa 1-2">
    <path class="cls-1" d="M577.59,51.91l26.44,209.07,109.26-180.16c21.52-35.38,75.82-11.15,63.9,28.39l-60.79,201.68,173.03-120.15c33.96-23.59,73.75,20.61,46.79,51.97l-137.65,159.55,206.99-39.4c40.7-7.78,58.97,48.86,21.65,66.49l-190.66,89.82,205.05,48.22c40.31,9.46,34.09,68.57-7.26,69.47l-210.62,4.54,167.72,127.41c32.92,25.02,3.24,76.6-35,60.53l-194.29-81.53,101.36,184.7c19.96,36.29-28.26,71.29-56.51,41.09l-144.26-153.46,17.5,209.97c3.5,41.22-54.7,53.66-68.31,14.52l-69.34-198.96-69.34,198.96c-13.61,39.01-71.81,26.7-68.31-14.52l17.5-209.97-144.26,153.46c-28.39,30.2-76.47-4.8-56.51-41.09l101.36-184.7-194.29,81.53c-38.11,16.07-67.92-35.51-35-60.53l167.72-127.41-210.62-4.54c-41.35-.91-47.57-60.01-7.26-69.47l205.05-48.22-190.66-89.82c-37.46-17.63-19.05-74.14,21.65-66.49l206.99,39.4-137.65-159.55c-27.09-31.37,12.83-75.56,46.79-51.97l173.03,120.15-60.79-201.68c-11.92-39.66,42.38-63.77,63.9-28.39l109.26,180.16,26.44-209.07c5.18-41.09,64.68-41.09,69.86,0h.13Z"/>
  </g>
</svg>