<svg width="504" height="137" viewBox="0 0 504 137" fill="none" xmlns="http://www.w3.org/2000/svg">
<path d="M25.86 30.82C21.66 30.82 18.34 32.08 15.9 34.6C13.5 37.12 12.3 40.62 12.3 45.1C12.3 49.5 13.56 52.98 16.08 55.54C18.6 58.1 21.86 59.38 25.86 59.38C29.34 59.38 32.78 58.28 36.18 56.08L39.06 63.52C35.06 66.24 30.32 67.6 24.84 67.6C17.88 67.6 12.3 65.58 8.1 61.54C3.94 57.5 1.86 52.02 1.86 45.1C1.86 38.1 3.88 32.6 7.92 28.6C12 24.6 17.64 22.6 24.84 22.6C30.32 22.6 35.06 23.96 39.06 26.68L36.18 34.12C32.78 31.92 29.34 30.82 25.86 30.82ZM43.103 67L57.923 23.2H68.723L83.483 67H72.683L70.103 57.52H56.243L53.723 67H43.103ZM58.343 49.78H68.063L63.263 32.02H63.143L58.343 49.78ZM89.5795 23.5C93.7395 22.9 98.1395 22.6 102.78 22.6C115.58 22.6 121.98 27.36 121.98 36.88C121.98 42.04 120.48 45.96 117.48 48.64C114.52 51.28 110.16 52.6 104.4 52.6C102.96 52.6 101.36 52.52 99.5995 52.36V67H89.5795V23.5ZM99.5995 44.8C100.88 45 102.14 45.1 103.38 45.1C106.26 45.1 108.48 44.44 110.04 43.12C111.64 41.76 112.44 39.88 112.44 37.48C112.44 32.72 109.42 30.34 103.38 30.34C102.06 30.34 100.8 30.46 99.5995 30.7V44.8ZM137.796 23.2V49.78C137.796 56.18 140.236 59.38 145.116 59.38C149.956 59.38 152.376 56.18 152.376 49.78V23.2H162.456V49.12C162.456 55.2 160.956 59.8 157.956 62.92C154.956 66.04 150.636 67.6 144.996 67.6C139.356 67.6 135.016 66.04 131.976 62.92C128.976 59.8 127.476 55.2 127.476 49.12V23.2H137.796ZM204.266 23.2V31.66H192.086V67H181.646V31.66H169.466V23.2H204.266ZM216.665 50.02C216.665 59.02 220.405 63.52 227.885 63.52C235.365 63.52 239.105 59.02 239.105 50.02V23.2H243.785V49.78C243.785 55.62 242.405 60.06 239.645 63.1C236.925 66.1 232.985 67.6 227.825 67.6C222.665 67.6 218.705 66.1 215.945 63.1C213.185 60.06 211.805 55.62 211.805 49.78V23.2H216.665V50.02ZM253.362 23.56C257.522 22.92 261.582 22.6 265.542 22.6C270.982 22.6 275.102 23.76 277.902 26.08C280.742 28.36 282.162 31.64 282.162 35.92C282.162 40.56 280.742 44.08 277.902 46.48C275.062 48.88 270.942 50.08 265.542 50.08C262.902 50.08 260.442 49.96 258.162 49.72V67H253.362V23.56ZM258.162 45.76C260.482 46.08 262.822 46.24 265.182 46.24C269.142 46.24 272.162 45.38 274.242 43.66C276.362 41.94 277.422 39.48 277.422 36.28C277.422 33.08 276.382 30.66 274.302 29.02C272.262 27.34 269.222 26.5 265.182 26.5C262.982 26.5 260.642 26.7 258.162 27.1V45.76ZM282.12 67L298.14 23.2H303.54L319.5 67H314.4L309.96 54.22H291.48L287.1 67H282.12ZM292.8 50.38H308.64L300.78 27.52H300.66L292.8 50.38ZM344.405 26.62C339.125 26.62 334.905 28.3 331.745 31.66C328.625 34.98 327.065 39.46 327.065 45.1C327.065 50.74 328.665 55.24 331.865 58.6C335.105 61.92 339.285 63.58 344.405 63.58C348.565 63.58 352.425 62.44 355.985 60.16L357.605 63.76C353.685 66.32 349.145 67.6 343.985 67.6C337.385 67.6 332.105 65.56 328.145 61.48C324.185 57.4 322.205 51.94 322.205 45.1C322.205 38.18 324.165 32.7 328.085 28.66C332.005 24.62 337.305 22.6 343.985 22.6C349.145 22.6 353.685 23.88 357.605 26.44L355.985 30.04C352.425 27.76 348.565 26.62 344.405 26.62Z" fill="black"/>
<path d="M16.4 82.08C12.88 82.08 10.0667 83.2 7.96 85.44C5.88 87.6533 4.84 90.64 4.84 94.4C4.84 98.16 5.90667 101.16 8.04 103.4C10.2 105.613 12.9867 106.72 16.4 106.72C19.1733 106.72 21.7467 105.96 24.12 104.44L25.2 106.84C22.5867 108.547 19.56 109.4 16.12 109.4C11.72 109.4 8.2 108.04 5.56 105.32C2.92 102.6 1.6 98.96 1.6 94.4C1.6 89.7867 2.90667 86.1333 5.52 83.44C8.13333 80.7467 11.6667 79.4 16.12 79.4C19.56 79.4 22.5867 80.2533 25.2 81.96L24.12 84.36C21.7467 82.84 19.1733 82.08 16.4 82.08ZM43.7819 92.44C42.5819 90.9467 40.9285 90.2 38.8219 90.2C36.7152 90.2 35.0485 90.9467 33.8219 92.44C32.6219 93.9067 32.0219 95.96 32.0219 98.6C32.0219 101.24 32.6219 103.307 33.8219 104.8C35.0485 106.267 36.7152 107 38.8219 107C40.9285 107 42.5819 106.267 43.7819 104.8C45.0085 103.307 45.6219 101.24 45.6219 98.6C45.6219 95.96 45.0085 93.9067 43.7819 92.44ZM45.9419 106.48C44.1552 108.427 41.7819 109.4 38.8219 109.4C35.8619 109.4 33.4885 108.427 31.7019 106.48C29.9152 104.533 29.0219 101.907 29.0219 98.6C29.0219 95.2933 29.9152 92.6667 31.7019 90.72C33.4885 88.7733 35.8619 87.8 38.8219 87.8C41.7819 87.8 44.1552 88.7733 45.9419 90.72C47.7285 92.6667 48.6219 95.2933 48.6219 98.6C48.6219 101.907 47.7285 104.533 45.9419 106.48ZM54.8344 109V79H57.9144V109H54.8344ZM67.1 99.72C67.1533 101.987 67.8467 103.773 69.18 105.08C70.5133 106.387 72.2467 107.04 74.38 107.04C76.4333 107.04 78.4733 106.507 80.5 105.44L81.3 107.72C79.06 108.84 76.66 109.4 74.1 109.4C71.1133 109.4 68.7 108.427 66.86 106.48C65.02 104.533 64.1 101.907 64.1 98.6C64.1 95.24 64.9533 92.6 66.66 90.68C68.3933 88.76 70.74 87.8 73.7 87.8C76.58 87.8 78.8067 88.72 80.38 90.56C81.98 92.3733 82.78 94.9867 82.78 98.4C82.78 98.7467 82.7533 99.1867 82.7 99.72H67.1ZM67.1 97.4H79.9C79.8733 95.08 79.3133 93.2933 78.22 92.04C77.1267 90.7867 75.62 90.16 73.7 90.16C71.7 90.16 70.1133 90.8 68.94 92.08C67.7933 93.3333 67.18 95.1067 67.1 97.4ZM97.0809 90.24C94.7343 90.24 92.9076 90.9733 91.6009 92.44C90.2943 93.88 89.6409 95.9333 89.6409 98.6C89.6409 101.16 90.3209 103.2 91.6809 104.72C93.0676 106.24 94.8676 107 97.0809 107C98.9476 107 100.734 106.547 102.441 105.64L103.241 108C101.241 108.933 99.1476 109.4 96.9609 109.4C93.8676 109.4 91.3609 108.427 89.4409 106.48C87.5209 104.507 86.5609 101.88 86.5609 98.6C86.5609 95.2133 87.4809 92.5733 89.3209 90.68C91.1609 88.76 93.7076 87.8 96.9609 87.8C99.1476 87.8 101.241 88.2667 103.241 89.2L102.441 91.64C100.654 90.7067 98.8676 90.24 97.0809 90.24ZM115.459 81.4V89H123.339V91.4H115.459V102.32C115.459 104.187 115.713 105.44 116.219 106.08C116.726 106.693 117.673 107 119.059 107C120.286 107 121.459 106.773 122.579 106.32L123.059 108.68C121.699 109.16 120.233 109.4 118.659 109.4C116.393 109.4 114.793 108.92 113.859 107.96C112.926 106.973 112.459 105.28 112.459 102.88V91.4H107.859V89H112.459V81.4H115.459ZM130.928 83.4V79H134.008V83.4H130.928ZM130.928 109V88.2H134.008V109H130.928ZM143.274 88.2L149.754 107.2H149.834L156.274 88.2H159.474L151.794 109H147.674L139.994 88.2H143.274ZM176.633 92.44C175.433 90.9467 173.78 90.2 171.673 90.2C169.567 90.2 167.9 90.9467 166.673 92.44C165.473 93.9067 164.873 95.96 164.873 98.6C164.873 101.24 165.473 103.307 166.673 104.8C167.9 106.267 169.567 107 171.673 107C173.78 107 175.433 106.267 176.633 104.8C177.86 103.307 178.473 101.24 178.473 98.6C178.473 95.96 177.86 93.9067 176.633 92.44ZM178.793 106.48C177.007 108.427 174.633 109.4 171.673 109.4C168.713 109.4 166.34 108.427 164.553 106.48C162.767 104.533 161.873 101.907 161.873 98.6C161.873 95.2933 162.767 92.6667 164.553 90.72C166.34 88.7733 168.713 87.8 171.673 87.8C174.633 87.8 177.007 88.7733 178.793 90.72C180.58 92.6667 181.473 95.2933 181.473 98.6C181.473 101.907 180.58 104.533 178.793 106.48ZM201.008 92.4C199.914 93.84 199.368 95.9067 199.368 98.6C199.368 101.293 199.928 103.373 201.048 104.84C202.168 106.28 203.674 107 205.568 107C207.381 107 208.848 106.293 209.968 104.88C211.114 103.467 211.688 101.467 211.688 98.88V98.32C211.688 95.7867 211.114 93.8 209.968 92.36C208.848 90.92 207.381 90.2 205.568 90.2C203.621 90.2 202.101 90.9333 201.008 92.4ZM196.488 98.6C196.488 95.1067 197.234 92.44 198.728 90.6C200.221 88.7333 202.274 87.8 204.888 87.8C207.901 87.8 210.141 89.0667 211.608 91.6H211.688V79H214.608V109H211.808L211.768 105.48H211.688C210.221 108.093 207.954 109.4 204.888 109.4C202.328 109.4 200.288 108.467 198.768 106.6C197.248 104.707 196.488 102.04 196.488 98.6ZM222.413 99.72C222.466 101.987 223.159 103.773 224.493 105.08C225.826 106.387 227.559 107.04 229.693 107.04C231.746 107.04 233.786 106.507 235.813 105.44L236.613 107.72C234.373 108.84 231.973 109.4 229.413 109.4C226.426 109.4 224.013 108.427 222.173 106.48C220.333 104.533 219.413 101.907 219.413 98.6C219.413 95.24 220.266 92.6 221.973 90.68C223.706 88.76 226.053 87.8 229.013 87.8C231.893 87.8 234.119 88.72 235.693 90.56C237.293 92.3733 238.093 94.9867 238.093 98.4C238.093 98.7467 238.066 99.1867 238.012 99.72H222.413ZM222.413 97.4H235.213C235.186 95.08 234.626 93.2933 233.533 92.04C232.439 90.7867 230.933 90.16 229.013 90.16C227.013 90.16 225.426 90.8 224.253 92.08C223.106 93.3333 222.493 95.1067 222.413 97.4ZM262.084 87.8C264.991 87.8 267.071 88.4 268.324 89.6C269.578 90.8 270.204 92.7733 270.204 95.52V103.4C270.204 105.293 270.404 107.16 270.804 109H268.004C267.791 107.96 267.658 106.733 267.604 105.32H267.524C266.804 106.6 265.764 107.6 264.404 108.32C263.044 109.04 261.511 109.4 259.804 109.4C257.884 109.4 256.351 108.867 255.204 107.8C254.058 106.707 253.484 105.24 253.484 103.4C253.484 101.08 254.498 99.24 256.524 97.88C258.551 96.4933 261.431 95.8 265.164 95.8H267.284V95.6C267.284 93.5733 266.898 92.1733 266.124 91.4C265.378 90.6 264.031 90.2 262.084 90.2C259.578 90.2 257.244 90.8133 255.084 92.04L254.564 89.68C256.858 88.4267 259.364 87.8 262.084 87.8ZM256.364 103.28C256.364 104.48 256.738 105.427 257.484 106.12C258.231 106.787 259.231 107.12 260.484 107.12C262.324 107.12 263.911 106.467 265.244 105.16C266.604 103.827 267.284 102.2 267.284 100.28V98.04H265.164C262.364 98.04 260.191 98.52 258.644 99.48C257.124 100.413 256.364 101.68 256.364 103.28ZM276.398 88.2H279.238L279.318 92.64H279.398C281.745 89.4133 285.052 87.8 289.318 87.8V90.32C286.358 90.32 283.958 91.1333 282.118 92.76C280.305 94.3867 279.398 96.4933 279.398 99.08V109H276.398V88.2ZM301.123 81.4V89H309.003V91.4H301.123V102.32C301.123 104.187 301.377 105.44 301.883 106.08C302.39 106.693 303.337 107 304.723 107C305.95 107 307.123 106.773 308.243 106.32L308.723 108.68C307.363 109.16 305.897 109.4 304.323 109.4C302.057 109.4 300.457 108.92 299.523 107.96C298.59 106.973 298.123 105.28 298.123 102.88V91.4H293.523V89H298.123V81.4H301.123ZM316.202 99.72C316.255 101.987 316.948 103.773 318.282 105.08C319.615 106.387 321.348 107.04 323.482 107.04C325.535 107.04 327.575 106.507 329.602 105.44L330.402 107.72C328.162 108.84 325.762 109.4 323.202 109.4C320.215 109.4 317.802 108.427 315.962 106.48C314.122 104.533 313.202 101.907 313.202 98.6C313.202 95.24 314.055 92.6 315.762 90.68C317.495 88.76 319.842 87.8 322.802 87.8C325.682 87.8 327.908 88.72 329.482 90.56C331.082 92.3733 331.882 94.9867 331.882 98.4C331.882 98.7467 331.855 99.1867 331.802 99.72H316.202ZM316.202 97.4H329.002C328.975 95.08 328.415 93.2933 327.322 92.04C326.228 90.7867 324.722 90.16 322.802 90.16C320.802 90.16 319.215 90.8 318.042 92.08C316.895 93.3333 316.282 95.1067 316.202 97.4Z" fill="black"/>
</svg>
